<svg id="visual" viewBox="0 0 961 208" width="961" height="208" xmlns="http://www.w3.org/2000/svg" xmlns:xlink="http://www.w3.org/1999/xlink" version="1.1"><rect x="0" y="0" width="961" height="208" fill="#ffffff"></rect><path d="M0 63L22.8 62.7C45.7 62.3 91.3 61.7 137.2 63C183 64.3 229 67.7 274.8 64.2C320.7 60.7 366.3 50.3 412 49.2C457.7 48 503.3 56 549 56.3C594.7 56.7 640.3 49.3 686.2 48.2C732 47 778 52 823.8 53C869.7 54 915.3 51 938.2 49.5L961 48L961 209L938.2 209C915.3 209 869.7 209 823.8 209C778 209 732 209 686.2 209C640.3 209 594.7 209 549 209C503.3 209 457.7 209 412 209C366.3 209 320.7 209 274.8 209C229 209 183 209 137.2 209C91.3 209 45.7 209 22.8 209L0 209Z" fill="#c1be8f"></path><path d="M0 123L22.8 115.3C45.7 107.7 91.3 92.3 137.2 89.8C183 87.3 229 97.7 274.8 97.3C320.7 97 366.3 86 412 82.3C457.7 78.7 503.3 82.3 549 84.3C594.7 86.3 640.3 86.7 686.2 93C732 99.3 778 111.7 823.8 108.7C869.7 105.7 915.3 87.3 938.2 78.2L961 69L961 209L938.2 209C915.3 209 869.7 209 823.8 209C778 209 732 209 686.2 209C640.3 209 594.7 209 549 209C503.3 209 457.7 209 412 209C366.3 209 320.7 209 274.8 209C229 209 183 209 137.2 209C91.3 209 45.7 209 22.8 209L0 209Z" fill="#d1ceaa"></path><path d="M0 127L22.8 123.3C45.7 119.7 91.3 112.3 137.2 115C183 117.7 229 130.3 274.8 134.2C320.7 138 366.3 133 412 131.7C457.7 130.3 503.3 132.7 549 130.8C594.7 129 640.3 123 686.2 117.8C732 112.7 778 108.3 823.8 105.8C869.7 103.3 915.3 102.7 938.2 102.3L961 102L961 209L938.2 209C915.3 209 869.7 209 823.8 209C778 209 732 209 686.2 209C640.3 209 594.7 209 549 209C503.3 209 457.7 209 412 209C366.3 209 320.7 209 274.8 209C229 209 183 209 137.2 209C91.3 209 45.7 209 22.8 209L0 209Z" fill="#e0dec6"></path><path d="M0 134L22.8 137.2C45.7 140.3 91.3 146.7 137.2 146.3C183 146 229 139 274.8 141C320.7 143 366.3 154 412 159.2C457.7 164.3 503.3 163.7 549 163.2C594.7 162.7 640.3 162.3 686.2 157.8C732 153.3 778 144.7 823.8 139.5C869.7 134.3 915.3 132.7 938.2 131.8L961 131L961 209L938.2 209C915.3 209 869.7 209 823.8 209C778 209 732 209 686.2 209C640.3 209 594.7 209 549 209C503.3 209 457.7 209 412 209C366.3 209 320.7 209 274.8 209C229 209 183 209 137.2 209C91.3 209 45.7 209 22.8 209L0 209Z" fill="#f0eee2"></path><path d="M0 184L22.8 183.3C45.7 182.7 91.3 181.3 137.2 180.8C183 180.3 229 180.7 274.8 180C320.7 179.3 366.3 177.7 412 177.7C457.7 177.7 503.3 179.3 549 176.3C594.7 173.3 640.3 165.7 686.2 165.7C732 165.7 778 173.3 823.8 173.5C869.7 173.7 915.3 166.3 938.2 162.7L961 159L961 209L938.2 209C915.3 209 869.7 209 823.8 209C778 209 732 209 686.2 209C640.3 209 594.7 209 549 209C503.3 209 457.7 209 412 209C366.3 209 320.7 209 274.8 209C229 209 183 209 137.2 209C91.3 209 45.7 209 22.8 209L0 209Z" fill="#ffffff"></path></svg>