<svg id="visual" viewBox="0 0 961 208" width="961" height="208" xmlns="http://www.w3.org/2000/svg" xmlns:xlink="http://www.w3.org/1999/xlink" version="1.1"><rect x="0" y="0" width="961" height="208" fill="#ffffff"></rect><path d="M0 41L22.8 42.8C45.7 44.7 91.3 48.3 137.2 46.7C183 45 229 38 274.8 41.8C320.7 45.7 366.3 60.3 412 68.7C457.7 77 503.3 79 549 71.5C594.7 64 640.3 47 686.2 40.7C732 34.3 778 38.7 823.8 46.2C869.7 53.7 915.3 64.3 938.2 69.7L961 75L961 209L938.2 209C915.3 209 869.7 209 823.8 209C778 209 732 209 686.2 209C640.3 209 594.7 209 549 209C503.3 209 457.7 209 412 209C366.3 209 320.7 209 274.8 209C229 209 183 209 137.2 209C91.3 209 45.7 209 22.8 209L0 209Z" fill="#c1be8f"></path><path d="M0 93L22.8 87.5C45.7 82 91.3 71 137.2 70.3C183 69.7 229 79.3 274.8 82.5C320.7 85.7 366.3 82.3 412 79.3C457.7 76.3 503.3 73.7 549 72.8C594.7 72 640.3 73 686.2 73C732 73 778 72 823.8 74.2C869.7 76.3 915.3 81.7 938.2 84.3L961 87L961 209L938.2 209C915.3 209 869.7 209 823.8 209C778 209 732 209 686.2 209C640.3 209 594.7 209 549 209C503.3 209 457.7 209 412 209C366.3 209 320.7 209 274.8 209C229 209 183 209 137.2 209C91.3 209 45.7 209 22.8 209L0 209Z" fill="#aeab7d"></path><path d="M0 109L22.8 106.3C45.7 103.7 91.3 98.3 137.2 97.5C183 96.7 229 100.3 274.8 101C320.7 101.7 366.3 99.3 412 95.2C457.7 91 503.3 85 549 78.7C594.7 72.3 640.3 65.7 686.2 67.3C732 69 778 79 823.8 83.7C869.7 88.3 915.3 87.7 938.2 87.3L961 87L961 209L938.2 209C915.3 209 869.7 209 823.8 209C778 209 732 209 686.2 209C640.3 209 594.7 209 549 209C503.3 209 457.7 209 412 209C366.3 209 320.7 209 274.8 209C229 209 183 209 137.2 209C91.3 209 45.7 209 22.8 209L0 209Z" fill="#9b996c"></path><path d="M0 112L22.8 105.3C45.7 98.7 91.3 85.3 137.2 79.3C183 73.3 229 74.7 274.8 80.8C320.7 87 366.3 98 412 97.8C457.7 97.7 503.3 86.3 549 86.7C594.7 87 640.3 99 686.2 102.5C732 106 778 101 823.8 96.3C869.7 91.7 915.3 87.3 938.2 85.2L961 83L961 209L938.2 209C915.3 209 869.7 209 823.8 209C778 209 732 209 686.2 209C640.3 209 594.7 209 549 209C503.3 209 457.7 209 412 209C366.3 209 320.7 209 274.8 209C229 209 183 209 137.2 209C91.3 209 45.7 209 22.8 209L0 209Z" fill="#89875b"></path><path d="M0 124L22.8 121.2C45.7 118.3 91.3 112.7 137.2 110.8C183 109 229 111 274.8 111.8C320.7 112.7 366.3 112.3 412 113.5C457.7 114.7 503.3 117.3 549 116.5C594.7 115.7 640.3 111.3 686.2 106.2C732 101 778 95 823.8 96.8C869.7 98.7 915.3 108.3 938.2 113.2L961 118L961 209L938.2 209C915.3 209 869.7 209 823.8 209C778 209 732 209 686.2 209C640.3 209 594.7 209 549 209C503.3 209 457.7 209 412 209C366.3 209 320.7 209 274.8 209C229 209 183 209 137.2 209C91.3 209 45.7 209 22.8 209L0 209Z" fill="#77754a"></path><path d="M0 121L22.8 118.8C45.7 116.7 91.3 112.3 137.2 115C183 117.7 229 127.3 274.8 131.8C320.7 136.3 366.3 135.7 412 134.5C457.7 133.3 503.3 131.7 549 129.7C594.7 127.7 640.3 125.3 686.2 121.8C732 118.3 778 113.7 823.8 110.7C869.7 107.7 915.3 106.3 938.2 105.7L961 105L961 209L938.2 209C915.3 209 869.7 209 823.8 209C778 209 732 209 686.2 209C640.3 209 594.7 209 549 209C503.3 209 457.7 209 412 209C366.3 209 320.7 209 274.8 209C229 209 183 209 137.2 209C91.3 209 45.7 209 22.8 209L0 209Z" fill="#66643a"></path><path d="M0 120L22.8 119C45.7 118 91.3 116 137.2 115.8C183 115.7 229 117.3 274.8 121.3C320.7 125.3 366.3 131.7 412 134.3C457.7 137 503.3 136 549 133.5C594.7 131 640.3 127 686.2 126.5C732 126 778 129 823.8 129.3C869.7 129.7 915.3 127.3 938.2 126.2L961 125L961 209L938.2 209C915.3 209 869.7 209 823.8 209C778 209 732 209 686.2 209C640.3 209 594.7 209 549 209C503.3 209 457.7 209 412 209C366.3 209 320.7 209 274.8 209C229 209 183 209 137.2 209C91.3 209 45.7 209 22.8 209L0 209Z" fill="#54542a"></path><path d="M0 144L22.8 143C45.7 142 91.3 140 137.2 141.3C183 142.7 229 147.3 274.8 147.3C320.7 147.3 366.3 142.7 412 143.5C457.7 144.3 503.3 150.7 549 152.5C594.7 154.3 640.3 151.7 686.2 150.3C732 149 778 149 823.8 146.5C869.7 144 915.3 139 938.2 136.5L961 134L961 209L938.2 209C915.3 209 869.7 209 823.8 209C778 209 732 209 686.2 209C640.3 209 594.7 209 549 209C503.3 209 457.7 209 412 209C366.3 209 320.7 209 274.8 209C229 209 183 209 137.2 209C91.3 209 45.7 209 22.8 209L0 209Z" fill="#44441b"></path><path d="M0 150L22.8 151.5C45.7 153 91.3 156 137.2 155.3C183 154.7 229 150.3 274.8 151.7C320.7 153 366.3 160 412 162.2C457.7 164.3 503.3 161.7 549 157.5C594.7 153.3 640.3 147.7 686.2 145C732 142.3 778 142.7 823.8 143.2C869.7 143.7 915.3 144.3 938.2 144.7L961 145L961 209L938.2 209C915.3 209 869.7 209 823.8 209C778 209 732 209 686.2 209C640.3 209 594.7 209 549 209C503.3 209 457.7 209 412 209C366.3 209 320.7 209 274.8 209C229 209 183 209 137.2 209C91.3 209 45.7 209 22.8 209L0 209Z" fill="#34340c"></path><path d="M0 163L22.8 164.2C45.7 165.3 91.3 167.7 137.2 167C183 166.3 229 162.7 274.8 162.2C320.7 161.7 366.3 164.3 412 167.3C457.7 170.3 503.3 173.7 549 174.8C594.7 176 640.3 175 686.2 172.8C732 170.7 778 167.3 823.8 165.8C869.7 164.3 915.3 164.7 938.2 164.8L961 165L961 209L938.2 209C915.3 209 869.7 209 823.8 209C778 209 732 209 686.2 209C640.3 209 594.7 209 549 209C503.3 209 457.7 209 412 209C366.3 209 320.7 209 274.8 209C229 209 183 209 137.2 209C91.3 209 45.7 209 22.8 209L0 209Z" fill="#252500"></path><path d="M0 181L22.8 179.7C45.7 178.3 91.3 175.7 137.2 176.8C183 178 229 183 274.8 183.5C320.7 184 366.3 180 412 177C457.7 174 503.3 172 549 171.2C594.7 170.3 640.3 170.7 686.2 173.5C732 176.3 778 181.7 823.8 181.3C869.7 181 915.3 175 938.2 172L961 169L961 209L938.2 209C915.3 209 869.7 209 823.8 209C778 209 732 209 686.2 209C640.3 209 594.7 209 549 209C503.3 209 457.7 209 412 209C366.3 209 320.7 209 274.8 209C229 209 183 209 137.2 209C91.3 209 45.7 209 22.8 209L0 209Z" fill="#1b1700"></path><path d="M0 196L22.8 196.2C45.7 196.3 91.3 196.7 137.2 197.2C183 197.7 229 198.3 274.8 198C320.7 197.7 366.3 196.3 412 195.8C457.7 195.3 503.3 195.7 549 195.7C594.7 195.7 640.3 195.3 686.2 194.2C732 193 778 191 823.8 191C869.7 191 915.3 193 938.2 194L961 195L961 209L938.2 209C915.3 209 869.7 209 823.8 209C778 209 732 209 686.2 209C640.3 209 594.7 209 549 209C503.3 209 457.7 209 412 209C366.3 209 320.7 209 274.8 209C229 209 183 209 137.2 209C91.3 209 45.7 209 22.8 209L0 209Z" fill="#000000"></path></svg>