<svg id="visual" viewBox="0 0 900 600" width="900" height="600" xmlns="http://www.w3.org/2000/svg" xmlns:xlink="http://www.w3.org/1999/xlink" version="1.1"><path d="M0 440L21.5 433.7C43 427.3 86 414.7 128.8 420.8C171.7 427 214.3 452 257.2 470.5C300 489 343 501 385.8 487.5C428.7 474 471.3 435 514.2 419.2C557 403.3 600 410.7 642.8 426.7C685.7 442.7 728.3 467.3 771.2 476.3C814 485.3 857 478.7 878.5 475.3L900 472L900 601L878.5 601C857 601 814 601 771.2 601C728.3 601 685.7 601 642.8 601C600 601 557 601 514.2 601C471.3 601 428.7 601 385.8 601C343 601 300 601 257.2 601C214.3 601 171.7 601 128.8 601C86 601 43 601 21.5 601L0 601Z" fill="#3C3F90" stroke-linecap="round" stroke-linejoin="miter"></path></svg>